HIERARCHY
ROOT pelvis
{
  OFFSET 0 100 0
  CHANNELS 6 Xposition Yposition Zposition Zrotation Xrotation Yrotation
  JOINT pelvis_right_femur
  {
    OFFSET -10.78128 -3.44521 -0.5502486
    CHANNELS 3 Zrotation Xrotation Yrotation
    JOINT right_femur_tibia
    {
      OFFSET -0.8047443 -44.0398 -0.1307829
      CHANNELS 3 Zrotation Xrotation Yrotation
      JOINT right_tibia_foot
      {
        OFFSET 3.006224 -47.83518 -5
        CHANNELS 3 Zrotation Xrotation Yrotation
        End Site
        {
          OFFSET 0 -5 15
        }
      }
    }
  }
  JOINT pelvis_left_femur
  {
    OFFSET 10.78128 -3.44521 -0.5502486
    CHANNELS 3 Zrotation Xrotation Yrotation
    JOINT left_femur_tibia
    {
      OFFSET 0.8047443 -44.0398 -0.1307829
      CHANNELS 3 Zrotation Xrotation Yrotation
      JOINT left_tibia_foot
      {
        OFFSET -4.370144 -48.10324 -4.275266
        CHANNELS 3 Zrotation Xrotation Yrotation
        End Site
        {
          OFFSET 0 -5 15
        }
      }
    }
  }
  JOINT pelvis_spine1
  {
    OFFSET 0 6.468898 -3.129235
    CHANNELS 3 Zrotation Xrotation Yrotation
    JOINT spine1
    {
      OFFSET 0 23.15396 4.99043
      CHANNELS 3 Zrotation Xrotation Yrotation
      JOINT spine2
      {
        OFFSET 0 20.79997 -5.064912
        CHANNELS 3 Zrotation Xrotation Yrotation
        JOINT neck
        {
          OFFSET 0 14.38658 9.616178
          CHANNELS 3 Zrotation Xrotation Yrotation
          End Site
          {
            OFFSET 0 20 0
          }
        }
      }
      JOINT right_manubrium
      {
        OFFSET -5.722621 16.35077 3.967754
        CHANNELS 3 Zrotation Xrotation Yrotation
        JOINT right_clavicle
        {
          OFFSET -13.16364 1.694482 -4.693211
          CHANNELS 3 Zrotation Xrotation Yrotation
          JOINT right_humerus
          {
            OFFSET -28.5034 -0.3100689 -2.792744
            CHANNELS 3 Zrotation Xrotation Yrotation
            JOINT right_radius
            {
              OFFSET -25.15693 0.02248979 -1.271978
              CHANNELS 3 Zrotation Xrotation Yrotation
              End Site
              {
                OFFSET -15 0 0
              }
            }
          }
        }
      }
      JOINT left_manubrium
      {
        OFFSET 5.722621 16.35077 3.967754
        CHANNELS 3 Zrotation Xrotation Yrotation
        JOINT left_clavicle
        {
          OFFSET 13.16364 1.694482 -4.693211
          CHANNELS 3 Zrotation Xrotation Yrotation
          JOINT left_humerus
          {
            OFFSET 29.39168 -1.063119 -2.237045
            CHANNELS 3 Zrotation Xrotation Yrotation
            JOINT left_radius
            {
              OFFSET 24.59957 -0.9528479 0.9047498
              CHANNELS 3 Zrotation Xrotation Yrotation
              End Site
              {
                OFFSET 15 -0 -0
              }
            }
          }
        }
      }
    }
  }
}
MOTION
Frames: 15
Frame Time: 0.0416666666667
0 103.5113 0 1.311529 -1.2059 0.01176195 3.413138 -15.38068 10.47056 -0 40.04946 -0 -5.16699 -18.87204 -4.286688 -7.263657 11.21814 -24.68284 -0 6.231068 -0 10.1325 -15.70968 28.50741 -4.18872 -3.701162 4.250085 2.564998 8.847342 -7.24817 1.549556 22.61013 6.693233 2.762858 -24.00971 9.840363 6.696437 -19.20096 11.30271 84.79102 36.51092 -17.97992 -0 0 16.17702 -6.000543 7.939938 4.277482 5.114688 -17.79222 -1.520845 -93.9616 27.73088 21.5285 0 0 -14.46245 7.261698 16.8139 5.3129
0.2341187 103.833 1.418797 1.200836 -1.288098 0.03124413 3.378644 -15.80248 10.02464 -0 40.0437 -0 -5.391415 -17.69933 -4.050883 -7.172828 11.18905 -24.29648 -0 6.231099 -0 9.769517 -15.90715 28.05396 -4.059487 -3.531426 4.174082 2.490537 8.964524 -7.205431 1.529299 22.59416 6.783592 2.843137 -24.0682 9.839825 6.527141 -19.18754 11.31605 84.9745 36.13494 -17.97878 -0 0 15.98975 -6.48689 7.961983 4.48496 5.200843 -18.03528 -1.656587 -93.75233 27.43063 21.3235 0 0 -14.55986 7.528268 16.73128 5.069551
0.5144615 103.9832 3.264362 0.2375353 -0.08411547 0.09122865 4.6494 -20.87909 9.113537 -0 35.5306 -0 -5.391457 -14.61233 -3.312531 -6.65469 11.53169 -22.87368 -0 5.531336 -0 7.955401 -18.091 26.09845 -3.251826 -2.758655 4.233715 2.59985 9.005294 -7.394502 1.50198 21.88441 7.222262 3.158196 -25.19935 10.12329 5.974409 -19.26199 11.28932 85.56567 35.14342 -18.83013 -0 0 15.805 -6.829753 8.080617 4.508463 6.031604 -19.25813 -1.542711 -93.7822 27.44419 21.5076 0 0 -16.63656 7.723777 16.30492 5.615299
0.812839 103.9359 5.487855 -0.5193697 1.156083 0.2417917 5.805028 -25.37652 8.609538 -0 30.748 -0 -5.29584 -12.49792 -2.805151 -6.263406 12.07733 -21.77916 -0 5.27487 -0 6.458372 -20.02749 24.48722 -2.672742 -2.179347 4.29979 2.777024 8.891393 -7.598741 1.531037 21.26668 7.545268 3.390302 -26.16915 10.42526 5.583229 -19.17491 11.20185 86.05037 34.62117 -19.7067 -0 0 15.44371 -6.812548 8.260713 4.350755 6.736924 -20.22765 -1.291723 -93.73615 27.63345 21.45405 0 0 -18.64039 7.857946 16.01293 6.052226
1.111736 103.6966 8.146958 -1.145847 2.293618 0.493915 6.760578 -29.4643 8.04957 -0 25.80496 -0 -5.339427 -10.3044 -2.325709 -5.926128 12.81451 -20.65272 -0 5.584004 -0 4.944798 -21.80249 22.80932 -2.21561 -1.664102 4.281183 2.945322 8.728779 -7.769762 1.593641 20.75971 7.81984 3.594649 -26.97823 10.72541 5.186545 -18.89283 11.06261 86.61952 34.20251 -20.59409 -0 0 14.68271 -6.915164 8.521469 4.2207 7.359093 -21.1326 -1.048713 -93.38046 27.69607 20.91193 0 0 -20.60708 8.161016 15.78298 6.123415
1.394639 103.2929 11.2972 -1.630584 3.294604 0.8569491 7.501749 -32.89698 7.455427 -0 20.93464 -0 -5.528814 -8.149111 -1.910542 -5.647452 13.72975 -19.52935 -0 6.581012 -0 3.395093 -23.29763 21.07691 -1.874911 -1.251845 4.169534 3.100082 8.511037 -7.910447 1.677987 20.37598 8.032837 3.755816 -27.58489 10.99627 4.805746 -18.41671 10.87383 87.26121 33.90882 -21.48797 -0 0 13.55715 -7.101226 8.855859 4.111291 7.850994 -21.91412 -0.8217002 -92.77085 27.67571 19.95719 0 0 -22.44891 8.516626 15.61178 5.939281
1.648273 102.7726 15.00354 -1.973995 4.021926 1.336855 7.969491 -35.31073 6.751934 -0 16.60572 -0 -5.934288 -6.041644 -1.577164 -5.4076 14.75325 -18.36897 -0 8.443817 -0 1.761679 -24.28717 19.25574 -1.605274 -0.9563489 3.927969 3.210045 8.267398 -8.003236 1.763849 20.15615 8.16594 3.848208 -27.90991 11.18779 4.408147 -17.76262 10.64373 87.98554 33.61702 -22.31489 -0 0 12.09897 -7.447522 9.226166 4.075049 8.152652 -22.51585 -0.6713044 -91.9173 27.49217 18.6146 0 0 -23.97369 8.895978 15.46158 5.493997
1.866471 102.2214 19.3183 -2.199647 4.362618 1.927319 8.188064 -36.31591 5.970306 -0 13.40984 -0 -6.583716 -4.186847 -1.364001 -5.172858 15.72119 -17.16634 -0 11.35221 -0 0.05094871 -24.45091 17.36441 -1.32913 -0.8005219 3.547485 3.252354 8.037564 -8.046734 1.815614 20.11501 8.20091 3.845526 -27.89139 11.23553 3.994541 -16.99908 10.39925 88.74585 33.24731 -22.98029 -0 0 10.47062 -7.954264 9.575739 4.142461 8.202457 -22.8583 -0.645468 -90.93089 27.0872 17.06963 0 0 -24.94216 9.228759 15.26786 4.859732
2.054632 101.7723 24.25694 -2.367607 4.227978 2.594208 8.274931 -35.59234 5.214476 -0 11.97101 -0 -7.469593 -2.875545 -1.301653 -4.886149 16.33928 -15.91675 -0 15.5007 -0 -1.685345 -23.41074 15.45818 -0.929719 -0.7916719 3.059745 3.20913 7.893502 -8.055175 1.78037 20.23706 8.137178 3.740353 -27.51022 11.06967 3.586528 -16.25914 10.19447 89.46202 32.75144 -23.3822 -0 0 8.945194 -8.601975 9.843812 4.340961 7.959051 -22.88968 -0.7882816 -90.00325 26.42598 15.66316 0 0 -25.12255 9.429648 14.95017 4.180262
2.233178 101.6054 29.76677 -2.567079 3.622269 3.253189 8.407631 -33.09453 4.624614 -0 12.60633 -0 -8.523702 -2.398696 -1.381679 -4.486254 16.18578 -14.62944 -0 21.11213 -0 -3.330229 -20.88003 13.64226 -0.293853 -0.9043114 2.57604 3.079927 7.936864 -8.061678 1.603253 20.45999 8.010413 3.573771 -26.83746 10.64726 3.252341 -15.72353 10.1093 90.03587 32.20912 -23.47359 -0 0 7.851147 -9.350542 10.01366 4.676274 7.4359 -22.64648 -1.113548 -89.37555 25.55322 14.85746 0 0 -24.42574 9.41906 14.45624 3.679127
2.434397 101.9158 35.7054 -2.851761 2.665576 3.754689 8.669941 -29.19054 4.251144 -0 14.87683 -0 -9.618817 -2.857316 -1.526969 -3.961534 14.81601 -13.33881 -0 28.45191 -0 -4.700676 -16.92685 12.07844 0.5807828 -1.059557 2.29885 2.884532 8.267985 -8.091994 1.275236 20.70159 7.882995 3.442077 -26.03229 9.994943 3.101932 -15.53607 10.21877 90.396 31.87322 -23.31339 -0 0 7.391847 -10.17547 10.16495 5.116742 6.718332 -22.29761 -1.589418 -89.21875 24.60876 15.01429 0 0 -23.03943 9.190696 13.83856 3.561441
2.686903 102.8379 41.85238 -3.123101 1.522722 3.917301 8.909893 -24.53061 3.994892 -0 17.43303 -0 -10.60001 -4.004443 -1.617438 -3.411442 11.96367 -12.11391 -0 37.65405 -0 -5.573529 -12.21943 10.9902 1.462486 -1.127113 2.458537 2.646118 8.91682 -8.109837 0.8945248 20.93153 7.781284 3.446094 -25.24452 9.228029 3.224162 -15.68662 10.53361 90.53196 32.06069 -23.02128 -0 0 7.459186 -11.09381 10.45972 5.587583 5.937123 -22.08328 -2.1424 -89.4983 23.76446 16.07791 0 0 -21.4061 8.871272 13.29616 3.831777
2.988823 104.3544 47.96247 -3.095776 0.2561942 3.629807 8.800985 -19.60343 3.707921 -0 18.6615 -0 -11.33919 -5.318793 -1.591639 -3.010404 7.677925 -11.02313 -0 48.11993 -0 -5.753687 -7.926041 10.63854 1.922593 -0.9795964 3.163488 2.359474 9.785983 -7.987537 0.6557848 21.21939 7.624666 3.594091 -24.48144 8.498527 3.563156 -16.01508 10.96333 90.4715 32.83868 -22.59429 -0 0 7.713759 -12.15027 11.00539 6.018926 5.212118 -22.12852 -2.685265 -89.96464 23.09929 17.5029 0 0 -19.94062 8.669656 13.06452 4.201958
3.291855 106.2528 53.82884 -2.522198 -1.177375 2.9589 8.151175 -14.42788 3.346846 -0 17.79538 -0 -11.76318 -6.362963 -1.500351 -2.812383 2.209692 -10.03572 -0 57.77487 -0 -5.164821 -5.099673 11.20422 1.645613 -0.5863531 4.284133 1.995469 10.68553 -7.589458 0.6982203 21.6398 7.271081 3.757222 -23.65093 7.891069 3.872206 -16.4378 11.37996 90.17624 33.82462 -21.75631 -0 0 8.022788 -13.37498 11.71556 6.461379 4.62294 -22.31003 -3.140738 -90.3673 22.52156 18.73732 0 0 -18.72301 8.696823 13.16187 4.31283
3.534052 108.1716 59.32512 -1.512869 -2.67654 2.139947 7.162608 -8.811656 2.989355 -0 15.27845 -0 -11.8208 -7.153653 -1.397238 -2.576022 -4.184646 -8.960406 -0 63.3185 -0 -3.915025 -4.00272 12.5919 0.7497581 -0.05561515 5.512528 1.567998 11.43579 -6.927385 0.9403484 22.10263 6.684648 3.752434 -22.79547 7.383916 3.877263 -17.14336 11.73653 89.4754 34.46761 -20.10124 -0 0 8.765192 -14.75647 12.36899 7.146526 4.215216 -22.36705 -3.435143 -90.71129 21.84962 19.83947 0 0 -17.54183 8.824246 13.2838 4.129594
